<svg width="500" height="500" viewBox="0 0 500 500" fill="none" xmlns="http://www.w3.org/2000/svg">
<g clip-path="url(#clip0_69_2)">
<path d="M356.614 181C352.707 169.045 347.558 158.332 341.166 148.862C334.893 139.274 327.376 131.107 318.616 124.359C309.975 117.612 300.151 112.463 289.142 108.912C278.134 105.361 266.06 103.585 252.92 103.585C231.377 103.585 211.786 109.149 194.149 120.276C176.512 131.402 162.485 147.797 152.068 169.459C141.652 191.121 136.443 217.695 136.443 249.182C136.443 280.669 141.711 307.243 152.246 328.905C162.781 350.567 177.045 366.961 195.037 378.088C213.029 389.215 233.271 394.778 255.761 394.778C276.595 394.778 294.942 390.339 310.804 381.462C326.784 372.465 339.213 359.8 348.091 343.464C357.087 327.011 361.585 307.657 361.585 285.403L375.08 288.244H265.705V249.182H404.199V288.244C404.199 318.192 397.807 344.234 385.023 366.369C372.357 388.505 354.838 405.669 332.466 417.861C310.212 429.935 284.644 435.972 255.761 435.972C223.564 435.972 195.274 428.396 170.889 413.244C146.623 398.093 127.684 376.549 114.071 348.614C100.577 320.678 93.8295 287.534 93.8295 249.182C93.8295 220.418 97.6766 194.553 105.371 171.589C113.183 148.507 124.192 128.857 138.396 112.641C152.601 96.4238 169.41 83.9948 188.822 75.3537C208.235 66.7126 229.601 62.392 252.92 62.392C272.097 62.392 289.971 65.2921 306.543 71.0923C323.233 76.7741 338.089 84.8826 351.109 95.4176C364.249 105.834 375.198 118.322 383.957 132.882C392.717 147.323 398.754 163.363 402.068 181H356.614Z" fill="white"/>
</g>
<defs>
<clipPath id="clip0_69_2">
<rect width="500" height="500" fill="white"/>
</clipPath>
</defs>
</svg>
